<svg width="224" height="24" viewBox="0 0 224 24" fill="none" xmlns="http://www.w3.org/2000/svg">
<path d="M9.26373 0.0384937C4.3734 0.707751 0.702688 4.53208 0.0869562 9.59931C-0.161705 11.6326 0.122479 13.5639 0.945428 15.3868C2.59725 19.0581 6.10218 20.9321 9.3999 19.9059C11.9694 19.1091 13.9113 16.4257 13.9113 13.6658C13.9113 13.0603 13.7811 12.7799 13.491 12.7544C13.2956 12.7353 13.1357 12.85 11.5964 14.0738C9.79065 15.5143 9.55975 15.6545 9.05059 15.5907C8.12107 15.4696 7.41061 14.4307 6.94881 12.5185C6.81856 11.9895 6.78896 11.6899 6.76528 10.7657C6.73567 9.52919 6.8008 8.87906 7.07314 7.86561C7.9849 4.46834 10.7853 1.89967 14.4086 1.14755C14.7283 1.07744 15.0007 1.0137 15.0125 0.994575C15.048 0.956332 14.1718 0.612143 13.5087 0.408179C12.5259 0.108606 11.6911 -0.00612342 10.5189 0.000250451C9.92682 0.00662433 9.36437 0.025746 9.26373 0.0384937Z" fill="#4EA174"/>
<path d="M15.717 3.92018C13.9586 4.17513 12.8337 4.7679 11.7325 6.01718C10.6905 7.19635 10.1103 8.66234 10.0984 10.1602C10.0925 10.9251 10.1458 11.1099 10.3945 11.2119C10.6076 11.3011 10.726 11.231 11.8213 10.3705C12.366 9.93711 13.112 9.35072 13.4672 9.06389C14.2369 8.45838 14.4441 8.33727 14.7993 8.27353C15.9893 8.07594 16.9899 9.5738 17.2918 12.0086C17.3747 12.7034 17.3274 14.2841 17.1971 14.9725C16.8537 16.8209 16.09 18.4271 14.9177 19.7784C13.6093 21.2762 11.543 22.4745 9.47679 22.9271L8.92619 23.0482L9.21037 23.1757C10.5662 23.8067 12.437 24.1062 14.0474 23.966C15.6874 23.8258 16.8893 23.4625 18.2865 22.704C19.3403 22.1367 20.0745 21.5822 20.8856 20.7408C22.123 19.4661 22.8867 18.204 23.461 16.5022C23.8991 15.1956 24.0057 14.4881 23.9998 12.901C23.9998 11.7664 23.9761 11.4668 23.8695 10.9314C23.1354 7.38119 20.8797 4.7934 17.878 4.06678C17.3984 3.95205 16.1018 3.86281 15.717 3.92018Z" fill="#4EA174"/>
<path d="M33.2912 18V4.90909H38.2003C39.206 4.90909 40.0497 5.08381 40.7315 5.43324C41.4176 5.78267 41.9354 6.27273 42.2848 6.90341C42.6385 7.52983 42.8153 8.26065 42.8153 9.09588C42.8153 9.93537 42.6364 10.6641 42.2784 11.282C41.9247 11.8956 41.4027 12.3707 40.7124 12.7074C40.022 13.0398 39.174 13.206 38.1683 13.206H34.6719V11.2372H37.8487C38.4368 11.2372 38.9183 11.1562 39.2933 10.9943C39.6683 10.8281 39.9453 10.5874 40.1243 10.272C40.3075 9.95241 40.3991 9.56037 40.3991 9.09588C40.3991 8.63139 40.3075 8.23509 40.1243 7.90696C39.9411 7.57457 39.6619 7.32315 39.2869 7.1527C38.9119 6.97798 38.4283 6.89062 37.8359 6.89062H35.6626V18H33.2912ZM40.054 12.0682L43.2947 18H40.6484L37.4652 12.0682H40.054ZM48.0219 18.1918C47.0375 18.1918 46.1874 17.9872 45.4715 17.5781C44.7598 17.1648 44.2123 16.581 43.8287 15.8267C43.4452 15.0682 43.2535 14.1754 43.2535 13.1484C43.2535 12.1385 43.4452 11.2521 43.8287 10.4893C44.2165 9.7223 44.7577 9.12571 45.4523 8.69957C46.1469 8.26918 46.963 8.05398 47.9005 8.05398C48.5056 8.05398 49.0766 8.15199 49.6135 8.34801C50.1547 8.53977 50.632 8.83807 51.0454 9.2429C51.463 9.64773 51.7911 10.1634 52.0297 10.7898C52.2684 11.4119 52.3877 12.1534 52.3877 13.0142V13.7237H44.3401V12.1641H50.1696C50.1654 11.7209 50.0695 11.3267 49.882 10.9815C49.6945 10.6321 49.4324 10.3572 49.0958 10.157C48.7634 9.95668 48.3756 9.85653 47.9324 9.85653C47.4594 9.85653 47.0439 9.97159 46.686 10.2017C46.328 10.4276 46.0489 10.7259 45.8486 11.0966C45.6526 11.4631 45.5525 11.8658 45.5482 12.3047V13.6662C45.5482 14.2372 45.6526 14.7273 45.8614 15.1364C46.0702 15.5412 46.3621 15.8523 46.7371 16.0696C47.1121 16.2827 47.551 16.3892 48.0539 16.3892C48.3905 16.3892 48.6952 16.3423 48.9679 16.2486C49.2407 16.1506 49.4772 16.0078 49.6775 15.8203C49.8777 15.6328 50.029 15.4006 50.1313 15.1236L52.2918 15.3665C52.1554 15.9375 51.8955 16.4361 51.512 16.8622C51.1327 17.2841 50.6469 17.6122 50.0546 17.8466C49.4623 18.0767 48.7847 18.1918 48.0219 18.1918ZM58.1679 8.18182V9.97159H52.5238V8.18182H58.1679ZM53.9172 5.82955H56.2312V15.0469C56.2312 15.358 56.278 15.5966 56.3718 15.7628C56.4698 15.9247 56.5976 16.0355 56.7553 16.0952C56.913 16.1548 57.0877 16.1847 57.2795 16.1847C57.4243 16.1847 57.5564 16.174 57.6758 16.1527C57.7993 16.1314 57.8931 16.1122 57.957 16.0952L58.3469 17.9041C58.2233 17.9467 58.0465 17.9936 57.8164 18.0447C57.5905 18.0959 57.3135 18.1257 56.9854 18.1342C56.4059 18.1513 55.8839 18.0639 55.4194 17.8722C54.9549 17.6761 54.5863 17.3736 54.3135 16.9645C54.0451 16.5554 53.913 16.044 53.9172 15.4304V5.82955ZM65.281 13.8707V8.18182H67.5949V18H65.3513V16.255H65.249C65.0274 16.8047 64.6631 17.2543 64.156 17.6037C63.6531 17.9531 63.0331 18.1278 62.2959 18.1278C61.6524 18.1278 61.0835 17.9851 60.5892 17.6996C60.0991 17.4098 59.7156 16.9901 59.4386 16.4403C59.1616 15.8864 59.0231 15.2173 59.0231 14.4332V8.18182H61.3371V14.0753C61.3371 14.6974 61.5075 15.1918 61.8484 15.5582C62.1893 15.9247 62.6368 16.108 63.1908 16.108C63.5317 16.108 63.8619 16.0249 64.1815 15.8587C64.5011 15.6925 64.7632 15.4453 64.9677 15.1172C65.1765 14.7848 65.281 14.3693 65.281 13.8707ZM68.8943 18V8.18182H71.1379V9.81818H71.2402C71.4192 9.25142 71.726 8.81463 72.1606 8.50781C72.5996 8.19673 73.1003 8.04119 73.6628 8.04119C73.7906 8.04119 73.9334 8.04758 74.091 8.06037C74.253 8.06889 74.3872 8.08381 74.4937 8.10511V10.2337C74.3957 10.1996 74.2402 10.1697 74.0271 10.1442C73.8183 10.1143 73.6159 10.0994 73.4199 10.0994C72.998 10.0994 72.6187 10.1911 72.2821 10.3743C71.9497 10.5533 71.6876 10.8026 71.4959 11.1222C71.3041 11.4418 71.2082 11.8104 71.2082 12.228V18H68.8943ZM77.2649 12.2472V18H74.951V8.18182H77.1627V9.85014H77.2777C77.5036 9.30043 77.8637 8.86364 78.358 8.53977C78.8566 8.21591 79.4723 8.05398 80.2053 8.05398C80.8828 8.05398 81.473 8.19886 81.9759 8.48864C82.483 8.77841 82.875 9.19815 83.152 9.74787C83.4333 10.2976 83.5718 10.9645 83.5675 11.7486V18H81.2536V12.1065C81.2536 11.4503 81.0831 10.9368 80.7422 10.5661C80.4056 10.1953 79.939 10.0099 79.3424 10.0099C78.9375 10.0099 78.5774 10.0994 78.2621 10.2784C77.951 10.4531 77.706 10.7067 77.527 11.0391C77.3523 11.3714 77.2649 11.7741 77.2649 12.2472ZM84.9421 18V4.90909H89.8511C90.8568 4.90909 91.7006 5.09659 92.3824 5.47159C93.0685 5.84659 93.5862 6.36222 93.9357 7.01847C94.2894 7.67045 94.4662 8.41193 94.4662 9.2429C94.4662 10.0824 94.2894 10.8281 93.9357 11.4801C93.582 12.1321 93.06 12.6456 92.3696 13.0206C91.6793 13.3913 90.8291 13.5767 89.8192 13.5767H86.5656V11.6271H89.4996C90.0876 11.6271 90.5692 11.5249 90.9442 11.3203C91.3192 11.1158 91.5962 10.8345 91.7751 10.4766C91.9584 10.1186 92.05 9.70739 92.05 9.2429C92.05 8.77841 91.9584 8.36932 91.7751 8.01562C91.5962 7.66193 91.3171 7.38707 90.9378 7.19105C90.5628 6.99077 90.0791 6.89062 89.4868 6.89062H87.3135V18H84.9421ZM95.3438 18V8.18182H97.6577V18H95.3438ZM96.5071 6.78835C96.1406 6.78835 95.8253 6.6669 95.5611 6.42401C95.2969 6.17685 95.1648 5.88068 95.1648 5.53551C95.1648 5.18608 95.2969 4.88991 95.5611 4.64702C95.8253 4.39986 96.1406 4.27628 96.5071 4.27628C96.8779 4.27628 97.1932 4.39986 97.4531 4.64702C97.7173 4.88991 97.8494 5.18608 97.8494 5.53551C97.8494 5.88068 97.7173 6.17685 97.4531 6.42401C97.1932 6.6669 96.8779 6.78835 96.5071 6.78835ZM101.271 4.90909V18H98.9571V4.90909H101.271ZM106.853 18.1918C105.894 18.1918 105.063 17.9808 104.36 17.5589C103.657 17.1371 103.112 16.5469 102.724 15.7884C102.34 15.0298 102.149 14.1435 102.149 13.1293C102.149 12.1151 102.34 11.2266 102.724 10.4638C103.112 9.70099 103.657 9.10866 104.36 8.68679C105.063 8.26491 105.894 8.05398 106.853 8.05398C107.812 8.05398 108.643 8.26491 109.346 8.68679C110.049 9.10866 110.592 9.70099 110.976 10.4638C111.364 11.2266 111.558 12.1151 111.558 13.1293C111.558 14.1435 111.364 15.0298 110.976 15.7884C110.592 16.5469 110.049 17.1371 109.346 17.5589C108.643 17.9808 107.812 18.1918 106.853 18.1918ZM106.866 16.3381C107.386 16.3381 107.82 16.1953 108.17 15.9098C108.519 15.62 108.779 15.2322 108.95 14.7464C109.124 14.2607 109.212 13.7195 109.212 13.1229C109.212 12.522 109.124 11.9787 108.95 11.4929C108.779 11.0028 108.519 10.6129 108.17 10.3232C107.82 10.0334 107.386 9.88849 106.866 9.88849C106.333 9.88849 105.89 10.0334 105.536 10.3232C105.187 10.6129 104.925 11.0028 104.75 11.4929C104.58 11.9787 104.494 12.522 104.494 13.1229C104.494 13.7195 104.58 14.2607 104.75 14.7464C104.925 15.2322 105.187 15.62 105.536 15.9098C105.89 16.1953 106.333 16.3381 106.866 16.3381ZM117.344 8.18182V9.97159H111.7V8.18182H117.344ZM113.094 5.82955H115.408V15.0469C115.408 15.358 115.454 15.5966 115.548 15.7628C115.646 15.9247 115.774 16.0355 115.932 16.0952C116.089 16.1548 116.264 16.1847 116.456 16.1847C116.601 16.1847 116.733 16.174 116.852 16.1527C116.976 16.1314 117.069 16.1122 117.133 16.0952L117.523 17.9041C117.4 17.9467 117.223 17.9936 116.993 18.0447C116.767 18.0959 116.49 18.1257 116.162 18.1342C115.582 18.1513 115.06 18.0639 114.596 17.8722C114.131 17.6761 113.763 17.3736 113.49 16.9645C113.221 16.5554 113.089 16.044 113.094 15.4304V5.82955Z" fill="black"/>
<path d="M133.062 16.5H130.145V7.04545H133.192C134.109 7.04545 134.894 7.23473 135.546 7.61328C136.199 7.98875 136.699 8.52888 137.047 9.23366C137.394 9.93537 137.568 10.7756 137.568 11.7543C137.568 12.7391 137.393 13.587 137.042 14.2979C136.691 15.0058 136.18 15.5505 135.509 15.9322C134.838 16.3107 134.023 16.5 133.062 16.5ZM131.29 15.4844H132.989C133.77 15.4844 134.418 15.3336 134.932 15.032C135.446 14.7304 135.829 14.301 136.082 13.744C136.334 13.1869 136.46 12.5237 136.46 11.7543C136.46 10.991 136.336 10.3339 136.086 9.78303C135.837 9.22905 135.465 8.80433 134.969 8.50888C134.474 8.21035 133.857 8.06108 133.118 8.06108H131.29V15.4844ZM141.534 16.6477C140.851 16.6477 140.261 16.4969 139.766 16.1953C139.273 15.8906 138.893 15.4659 138.626 14.9212C138.361 14.3733 138.229 13.7363 138.229 13.0099C138.229 12.2836 138.361 11.6435 138.626 11.0895C138.893 10.5324 139.266 10.0985 139.743 9.78764C140.223 9.47372 140.783 9.31676 141.423 9.31676C141.792 9.31676 142.157 9.37831 142.517 9.50142C142.877 9.62453 143.205 9.82457 143.501 10.1016C143.796 10.3755 144.031 10.7386 144.207 11.1911C144.382 11.6435 144.47 12.2005 144.47 12.8622V13.3239H139.004V12.3821H143.362C143.362 11.982 143.282 11.625 143.122 11.3111C142.965 10.9972 142.74 10.7494 142.448 10.5678C142.159 10.3862 141.817 10.2955 141.423 10.2955C140.989 10.2955 140.614 10.4032 140.297 10.6186C139.983 10.831 139.741 11.108 139.572 11.4496C139.403 11.7912 139.318 12.1574 139.318 12.5483V13.1761C139.318 13.7116 139.41 14.1656 139.595 14.538C139.783 14.9073 140.043 15.1889 140.375 15.3828C140.708 15.5736 141.094 15.669 141.534 15.669C141.82 15.669 142.079 15.629 142.309 15.549C142.543 15.4659 142.745 15.3428 142.914 15.1797C143.084 15.0135 143.214 14.8073 143.307 14.5611L144.359 14.8565C144.248 15.2135 144.062 15.5275 143.801 15.7983C143.539 16.0661 143.216 16.2753 142.831 16.4261C142.446 16.5739 142.014 16.6477 141.534 16.6477ZM150.93 9.40909L148.308 16.5H147.2L144.578 9.40909H145.759L147.717 15.0597H147.791L149.748 9.40909H150.93ZM154.307 16.6477C153.624 16.6477 153.034 16.4969 152.539 16.1953C152.046 15.8906 151.666 15.4659 151.399 14.9212C151.134 14.3733 151.002 13.7363 151.002 13.0099C151.002 12.2836 151.134 11.6435 151.399 11.0895C151.666 10.5324 152.039 10.0985 152.516 9.78764C152.996 9.47372 153.556 9.31676 154.196 9.31676C154.565 9.31676 154.93 9.37831 155.29 9.50142C155.65 9.62453 155.978 9.82457 156.274 10.1016C156.569 10.3755 156.804 10.7386 156.98 11.1911C157.155 11.6435 157.243 12.2005 157.243 12.8622V13.3239H151.777V12.3821H156.135C156.135 11.982 156.055 11.625 155.895 11.3111C155.738 10.9972 155.513 10.7494 155.221 10.5678C154.932 10.3862 154.59 10.2955 154.196 10.2955C153.762 10.2955 153.387 10.4032 153.07 10.6186C152.756 10.831 152.514 11.108 152.345 11.4496C152.176 11.7912 152.091 12.1574 152.091 12.5483V13.1761C152.091 13.7116 152.183 14.1656 152.368 14.538C152.556 14.9073 152.816 15.1889 153.148 15.3828C153.481 15.5736 153.867 15.669 154.307 15.669C154.593 15.669 154.852 15.629 155.082 15.549C155.316 15.4659 155.518 15.3428 155.687 15.1797C155.857 15.0135 155.987 14.8073 156.08 14.5611L157.132 14.8565C157.021 15.2135 156.835 15.5275 156.574 15.7983C156.312 16.0661 155.989 16.2753 155.604 16.4261C155.219 16.5739 154.787 16.6477 154.307 16.6477ZM159.21 7.04545V16.5H158.12V7.04545H159.21ZM163.306 16.6477C162.666 16.6477 162.104 16.4954 161.621 16.1907C161.141 15.886 160.765 15.4598 160.495 14.9119C160.227 14.3641 160.093 13.724 160.093 12.9915C160.093 12.2528 160.227 11.6081 160.495 11.0572C160.765 10.5063 161.141 10.0785 161.621 9.77379C162.104 9.46911 162.666 9.31676 163.306 9.31676C163.946 9.31676 164.506 9.46911 164.986 9.77379C165.47 10.0785 165.845 10.5063 166.113 11.0572C166.384 11.6081 166.519 12.2528 166.519 12.9915C166.519 13.724 166.384 14.3641 166.113 14.9119C165.845 15.4598 165.47 15.886 164.986 16.1907C164.506 16.4954 163.946 16.6477 163.306 16.6477ZM163.306 15.669C163.792 15.669 164.192 15.5444 164.506 15.2951C164.82 15.0458 165.053 14.718 165.203 14.3118C165.354 13.9055 165.43 13.4654 165.43 12.9915C165.43 12.5175 165.354 12.0759 165.203 11.6665C165.053 11.2572 164.82 10.9264 164.506 10.674C164.192 10.4216 163.792 10.2955 163.306 10.2955C162.82 10.2955 162.42 10.4216 162.106 10.674C161.792 10.9264 161.559 11.2572 161.409 11.6665C161.258 12.0759 161.182 12.5175 161.182 12.9915C161.182 13.4654 161.258 13.9055 161.409 14.3118C161.559 14.718 161.792 15.0458 162.106 15.2951C162.42 15.5444 162.82 15.669 163.306 15.669ZM167.402 19.1591V9.40909H168.455V10.5355H168.584C168.664 10.4124 168.775 10.2554 168.916 10.0646C169.061 9.87074 169.267 9.69839 169.535 9.54759C169.806 9.3937 170.172 9.31676 170.634 9.31676C171.231 9.31676 171.757 9.46603 172.212 9.76456C172.668 10.0631 173.023 10.4863 173.279 11.0341C173.534 11.5819 173.662 12.2282 173.662 12.973C173.662 13.724 173.534 14.3749 173.279 14.9258C173.023 15.4736 172.67 15.8983 172.217 16.1999C171.765 16.4985 171.243 16.6477 170.652 16.6477C170.197 16.6477 169.832 16.5723 169.558 16.4215C169.284 16.2676 169.073 16.0937 168.926 15.8999C168.778 15.7029 168.664 15.5398 168.584 15.4105H168.492V19.1591H167.402ZM168.473 12.9545C168.473 13.4901 168.552 13.9625 168.709 14.3718C168.866 14.7781 169.095 15.0966 169.396 15.3274C169.698 15.5552 170.067 15.669 170.504 15.669C170.96 15.669 171.34 15.549 171.645 15.3089C171.952 15.0658 172.183 14.7396 172.337 14.3303C172.494 13.9179 172.573 13.4593 172.573 12.9545C172.573 12.456 172.496 12.0066 172.342 11.6065C172.191 11.2034 171.962 10.8848 171.654 10.6509C171.349 10.4139 170.966 10.2955 170.504 10.2955C170.061 10.2955 169.689 10.4078 169.387 10.6325C169.086 10.854 168.858 11.1649 168.704 11.565C168.55 11.962 168.473 12.4252 168.473 12.9545ZM177.517 16.6477C176.834 16.6477 176.244 16.4969 175.749 16.1953C175.256 15.8906 174.876 15.4659 174.609 14.9212C174.344 14.3733 174.212 13.7363 174.212 13.0099C174.212 12.2836 174.344 11.6435 174.609 11.0895C174.876 10.5324 175.249 10.0985 175.726 9.78764C176.206 9.47372 176.766 9.31676 177.406 9.31676C177.776 9.31676 178.14 9.37831 178.5 9.50142C178.86 9.62453 179.188 9.82457 179.484 10.1016C179.779 10.3755 180.015 10.7386 180.19 11.1911C180.365 11.6435 180.453 12.2005 180.453 12.8622V13.3239H174.987V12.3821H179.345C179.345 11.982 179.265 11.625 179.105 11.3111C178.948 10.9972 178.723 10.7494 178.431 10.5678C178.142 10.3862 177.8 10.2955 177.406 10.2955C176.972 10.2955 176.597 10.4032 176.28 10.6186C175.966 10.831 175.724 11.108 175.555 11.4496C175.386 11.7912 175.301 12.1574 175.301 12.5483V13.1761C175.301 13.7116 175.393 14.1656 175.578 14.538C175.766 14.9073 176.026 15.1889 176.358 15.3828C176.691 15.5736 177.077 15.669 177.517 15.669C177.803 15.669 178.062 15.629 178.293 15.549C178.526 15.4659 178.728 15.3428 178.897 15.1797C179.067 15.0135 179.197 14.8073 179.29 14.5611L180.342 14.8565C180.231 15.2135 180.045 15.5275 179.784 15.7983C179.522 16.0661 179.199 16.2753 178.814 16.4261C178.43 16.5739 177.997 16.6477 177.517 16.6477ZM181.33 16.5V9.40909H182.383V10.4801H182.457C182.586 10.1293 182.82 9.84458 183.159 9.62606C183.497 9.40755 183.879 9.29829 184.303 9.29829C184.383 9.29829 184.483 9.29983 184.603 9.30291C184.724 9.30599 184.814 9.31061 184.876 9.31676V10.4247C184.839 10.4155 184.754 10.4016 184.622 10.3832C184.493 10.3616 184.356 10.3509 184.211 10.3509C183.866 10.3509 183.559 10.4232 183.288 10.5678C183.02 10.7094 182.808 10.9064 182.651 11.1587C182.497 11.408 182.42 11.6927 182.42 12.0128V16.5H181.33ZM188.411 16.5V7.04545H191.606C192.348 7.04545 192.954 7.17933 193.425 7.44709C193.899 7.71177 194.25 8.07031 194.477 8.52273C194.705 8.97514 194.819 9.47988 194.819 10.0369C194.819 10.594 194.705 11.1003 194.477 11.5558C194.253 12.0112 193.905 12.3744 193.434 12.6452C192.963 12.913 192.36 13.0469 191.624 13.0469H189.335V12.0312H191.587C192.095 12.0312 192.503 11.9435 192.811 11.7681C193.119 11.5927 193.342 11.3557 193.48 11.0572C193.622 10.7556 193.693 10.4155 193.693 10.0369C193.693 9.65838 193.622 9.31984 193.48 9.02131C193.342 8.72277 193.117 8.48887 192.806 8.3196C192.495 8.14725 192.083 8.06108 191.569 8.06108H189.556V16.5H188.411ZM198.54 16.6477C197.9 16.6477 197.338 16.4954 196.855 16.1907C196.375 15.886 195.999 15.4598 195.729 14.9119C195.461 14.3641 195.327 13.724 195.327 12.9915C195.327 12.2528 195.461 11.6081 195.729 11.0572C195.999 10.5063 196.375 10.0785 196.855 9.77379C197.338 9.46911 197.9 9.31676 198.54 9.31676C199.18 9.31676 199.74 9.46911 200.22 9.77379C200.704 10.0785 201.079 10.5063 201.347 11.0572C201.618 11.6081 201.753 12.2528 201.753 12.9915C201.753 13.724 201.618 14.3641 201.347 14.9119C201.079 15.4598 200.704 15.886 200.22 16.1907C199.74 16.4954 199.18 16.6477 198.54 16.6477ZM198.54 15.669C199.026 15.669 199.426 15.5444 199.74 15.2951C200.054 15.0458 200.287 14.718 200.437 14.3118C200.588 13.9055 200.664 13.4654 200.664 12.9915C200.664 12.5175 200.588 12.0759 200.437 11.6665C200.287 11.2572 200.054 10.9264 199.74 10.674C199.426 10.4216 199.026 10.2955 198.54 10.2955C198.054 10.2955 197.654 10.4216 197.34 10.674C197.026 10.9264 196.793 11.2572 196.643 11.6665C196.492 12.0759 196.416 12.5175 196.416 12.9915C196.416 13.4654 196.492 13.9055 196.643 14.3118C196.793 14.718 197.026 15.0458 197.34 15.2951C197.654 15.5444 198.054 15.669 198.54 15.669ZM202.636 16.5V9.40909H203.689V10.4801H203.763C203.892 10.1293 204.126 9.84458 204.464 9.62606C204.803 9.40755 205.184 9.29829 205.609 9.29829C205.689 9.29829 205.789 9.29983 205.909 9.30291C206.029 9.30599 206.12 9.31061 206.182 9.31676V10.4247C206.145 10.4155 206.06 10.4016 205.928 10.3832C205.798 10.3616 205.662 10.3509 205.517 10.3509C205.172 10.3509 204.864 10.4232 204.594 10.5678C204.326 10.7094 204.113 10.9064 203.956 11.1587C203.803 11.408 203.726 11.6927 203.726 12.0128V16.5H202.636ZM210.221 9.40909V10.3324H206.547V9.40909H210.221ZM207.618 7.71023H208.707V14.4688C208.707 14.7765 208.752 15.0073 208.841 15.1612C208.933 15.312 209.05 15.4136 209.192 15.4659C209.336 15.5152 209.489 15.5398 209.649 15.5398C209.769 15.5398 209.867 15.5336 209.944 15.5213C210.021 15.5059 210.083 15.4936 210.129 15.4844L210.351 16.4631C210.277 16.4908 210.174 16.5185 210.041 16.5462C209.909 16.5769 209.741 16.5923 209.538 16.5923C209.23 16.5923 208.929 16.5262 208.633 16.3938C208.341 16.2615 208.098 16.0599 207.904 15.7891C207.713 15.5182 207.618 15.1766 207.618 14.7642V7.71023ZM213.167 16.6662C212.717 16.6662 212.31 16.5816 211.943 16.4123C211.577 16.2399 211.286 15.9922 211.071 15.669C210.855 15.3428 210.748 14.9489 210.748 14.4872C210.748 14.081 210.828 13.7517 210.988 13.4993C211.148 13.2438 211.362 13.0438 211.629 12.8991C211.897 12.7545 212.193 12.6468 212.516 12.576C212.842 12.5021 213.17 12.4437 213.499 12.4006C213.93 12.3452 214.279 12.3036 214.547 12.2759C214.818 12.2451 215.015 12.1944 215.138 12.1236C215.264 12.0528 215.327 11.9297 215.327 11.7543V11.7173C215.327 11.2618 215.203 10.9079 214.953 10.6555C214.707 10.4032 214.333 10.277 213.832 10.277C213.311 10.277 212.904 10.3909 212.608 10.6186C212.313 10.8464 212.105 11.0895 211.985 11.348L210.951 10.9787C211.135 10.5478 211.382 10.2124 211.689 9.9723C212 9.72917 212.339 9.5599 212.705 9.46449C213.074 9.366 213.438 9.31676 213.795 9.31676C214.022 9.31676 214.284 9.34446 214.579 9.39986C214.878 9.45218 215.166 9.56143 215.443 9.72763C215.723 9.89382 215.955 10.1446 216.14 10.4801C216.324 10.8156 216.417 11.2649 216.417 11.8281V16.5H215.327V15.5398H215.272C215.198 15.6937 215.075 15.8583 214.903 16.0337C214.73 16.2092 214.501 16.3584 214.215 16.4815C213.928 16.6046 213.579 16.6662 213.167 16.6662ZM213.333 15.6875C213.764 15.6875 214.127 15.6029 214.422 15.4336C214.721 15.2643 214.946 15.0458 215.096 14.7781C215.25 14.5103 215.327 14.2287 215.327 13.9332V12.9361C215.281 12.9915 215.18 13.0423 215.023 13.0884C214.869 13.1315 214.69 13.17 214.487 13.2038C214.287 13.2346 214.092 13.2623 213.901 13.2869C213.713 13.3085 213.561 13.3269 213.444 13.3423C213.161 13.3793 212.896 13.4393 212.65 13.5224C212.407 13.6024 212.21 13.724 212.059 13.8871C211.911 14.0471 211.837 14.2656 211.837 14.5426C211.837 14.9212 211.977 15.2074 212.257 15.4013C212.54 15.5921 212.899 15.6875 213.333 15.6875ZM218.715 7.04545V16.5H217.625V7.04545H218.715Z" fill="#8F8F8F"/>
</svg>
